<mxfile host="app.diagrams.net" modified="2023-06-22T16:41:46.216Z" agent="Mozilla/5.0 (Windows NT 10.0; Win64; x64) AppleWebKit/537.36 (KHTML, like Gecko) Chrome/114.0.0.0 Safari/537.36 Edg/114.0.1823.51" etag="wbLpeXFLLYMyoEpy1ttU" version="21.5.0" type="github">
  <diagram name="PÃ¡gina-1" id="QlF30DgO23kl-ejPTr6H">
    <mxGraphModel dx="1618" dy="796" grid="1" gridSize="10" guides="1" tooltips="1" connect="1" arrows="1" fold="1" page="1" pageScale="1" pageWidth="827" pageHeight="1169" math="0" shadow="0">
      <root>
        <mxCell id="0" />
        <mxCell id="1" parent="0" />
        <mxCell id="QlFemAFxS4Am1Kz2Skcr-2" value="&lt;font style=&quot;vertical-align: inherit;&quot;&gt;&lt;font style=&quot;vertical-align: inherit;&quot;&gt;Cliente&lt;/font&gt;&lt;/font&gt;" style="rounded=0;whiteSpace=wrap;html=1;" parent="1" vertex="1">
          <mxGeometry x="450" y="495" width="120" height="60" as="geometry" />
        </mxCell>
        <mxCell id="QlFemAFxS4Am1Kz2Skcr-4" style="edgeStyle=orthogonalEdgeStyle;rounded=0;orthogonalLoop=1;jettySize=auto;html=1;" parent="1" source="QlFemAFxS4Am1Kz2Skcr-3" target="QlFemAFxS4Am1Kz2Skcr-2" edge="1">
          <mxGeometry relative="1" as="geometry" />
        </mxCell>
        <mxCell id="QlFemAFxS4Am1Kz2Skcr-3" value="&lt;font style=&quot;vertical-align: inherit;&quot;&gt;&lt;font style=&quot;vertical-align: inherit;&quot;&gt;nombre&lt;/font&gt;&lt;/font&gt;" style="ellipse;whiteSpace=wrap;html=1;" parent="1" vertex="1">
          <mxGeometry x="720" y="430" width="70" height="60" as="geometry" />
        </mxCell>
        <mxCell id="QlFemAFxS4Am1Kz2Skcr-6" style="edgeStyle=orthogonalEdgeStyle;rounded=0;orthogonalLoop=1;jettySize=auto;html=1;" parent="1" source="QlFemAFxS4Am1Kz2Skcr-5" target="QlFemAFxS4Am1Kz2Skcr-2" edge="1">
          <mxGeometry relative="1" as="geometry" />
        </mxCell>
        <mxCell id="QlFemAFxS4Am1Kz2Skcr-5" value="&lt;font style=&quot;vertical-align: inherit;&quot;&gt;&lt;font style=&quot;vertical-align: inherit;&quot;&gt;ape_paterno&lt;/font&gt;&lt;/font&gt;" style="ellipse;whiteSpace=wrap;html=1;" parent="1" vertex="1">
          <mxGeometry x="615" y="605" width="70" height="55" as="geometry" />
        </mxCell>
        <mxCell id="QlFemAFxS4Am1Kz2Skcr-8" style="edgeStyle=orthogonalEdgeStyle;rounded=0;orthogonalLoop=1;jettySize=auto;html=1;" parent="1" source="QlFemAFxS4Am1Kz2Skcr-7" target="QlFemAFxS4Am1Kz2Skcr-2" edge="1">
          <mxGeometry relative="1" as="geometry" />
        </mxCell>
        <mxCell id="QlFemAFxS4Am1Kz2Skcr-10" style="edgeStyle=orthogonalEdgeStyle;rounded=0;orthogonalLoop=1;jettySize=auto;html=1;" parent="1" source="QlFemAFxS4Am1Kz2Skcr-7" target="QlFemAFxS4Am1Kz2Skcr-2" edge="1">
          <mxGeometry relative="1" as="geometry">
            <Array as="points" />
          </mxGeometry>
        </mxCell>
        <mxCell id="TyybJpcUA5PZNV3QXTrk-1" style="edgeStyle=orthogonalEdgeStyle;rounded=0;orthogonalLoop=1;jettySize=auto;html=1;entryX=1;entryY=0.25;entryDx=0;entryDy=0;" parent="1" source="QlFemAFxS4Am1Kz2Skcr-9" target="QlFemAFxS4Am1Kz2Skcr-2" edge="1">
          <mxGeometry relative="1" as="geometry" />
        </mxCell>
        <mxCell id="QlFemAFxS4Am1Kz2Skcr-9" value="&lt;font style=&quot;vertical-align: inherit;&quot;&gt;&lt;font style=&quot;vertical-align: inherit;&quot;&gt;rfc&lt;/font&gt;&lt;/font&gt;" style="ellipse;whiteSpace=wrap;html=1;" parent="1" vertex="1">
          <mxGeometry x="620" y="480" width="75" height="60" as="geometry" />
        </mxCell>
        <mxCell id="QlFemAFxS4Am1Kz2Skcr-12" style="edgeStyle=orthogonalEdgeStyle;rounded=0;orthogonalLoop=1;jettySize=auto;html=1;" parent="1" source="QlFemAFxS4Am1Kz2Skcr-11" target="QlFemAFxS4Am1Kz2Skcr-2" edge="1">
          <mxGeometry relative="1" as="geometry" />
        </mxCell>
        <mxCell id="QlFemAFxS4Am1Kz2Skcr-11" value="&lt;font style=&quot;vertical-align: inherit;&quot;&gt;&lt;font style=&quot;vertical-align: inherit;&quot;&gt;&lt;font style=&quot;vertical-align: inherit;&quot;&gt;&lt;font style=&quot;vertical-align: inherit;&quot;&gt;direccion&lt;/font&gt;&lt;/font&gt;&lt;/font&gt;&lt;/font&gt;" style="ellipse;whiteSpace=wrap;html=1;" parent="1" vertex="1">
          <mxGeometry x="610" y="670" width="70" height="55" as="geometry" />
        </mxCell>
        <mxCell id="QlFemAFxS4Am1Kz2Skcr-14" style="edgeStyle=orthogonalEdgeStyle;rounded=0;orthogonalLoop=1;jettySize=auto;html=1;entryX=1;entryY=0.75;entryDx=0;entryDy=0;" parent="1" source="QlFemAFxS4Am1Kz2Skcr-13" target="QlFemAFxS4Am1Kz2Skcr-2" edge="1">
          <mxGeometry relative="1" as="geometry">
            <Array as="points">
              <mxPoint x="570" y="550" />
            </Array>
          </mxGeometry>
        </mxCell>
        <mxCell id="QlFemAFxS4Am1Kz2Skcr-13" value="&lt;font style=&quot;vertical-align: inherit;&quot;&gt;&lt;font style=&quot;vertical-align: inherit;&quot;&gt;Fecha_nac&lt;/font&gt;&lt;/font&gt;" style="ellipse;whiteSpace=wrap;html=1;" parent="1" vertex="1">
          <mxGeometry x="750" y="520" width="70" height="60" as="geometry" />
        </mxCell>
        <mxCell id="QlFemAFxS4Am1Kz2Skcr-15" value="&lt;font style=&quot;vertical-align: inherit;&quot;&gt;&lt;font style=&quot;vertical-align: inherit;&quot;&gt;&lt;font style=&quot;vertical-align: inherit;&quot;&gt;&lt;font style=&quot;vertical-align: inherit;&quot;&gt;producto&lt;/font&gt;&lt;/font&gt;&lt;/font&gt;&lt;/font&gt;" style="rounded=0;whiteSpace=wrap;html=1;" parent="1" vertex="1">
          <mxGeometry x="140" y="499" width="120" height="60" as="geometry" />
        </mxCell>
        <mxCell id="QlFemAFxS4Am1Kz2Skcr-17" style="edgeStyle=orthogonalEdgeStyle;rounded=0;orthogonalLoop=1;jettySize=auto;html=1;" parent="1" target="QlFemAFxS4Am1Kz2Skcr-15" edge="1">
          <mxGeometry relative="1" as="geometry">
            <mxPoint x="75" y="485" as="sourcePoint" />
          </mxGeometry>
        </mxCell>
        <mxCell id="QlFemAFxS4Am1Kz2Skcr-16" value="&lt;font style=&quot;vertical-align: inherit;&quot;&gt;&lt;font style=&quot;vertical-align: inherit;&quot;&gt;&lt;font style=&quot;vertical-align: inherit;&quot;&gt;&lt;font style=&quot;vertical-align: inherit;&quot;&gt;nombre&lt;/font&gt;&lt;/font&gt;&lt;/font&gt;&lt;/font&gt;" style="ellipse;whiteSpace=wrap;html=1;" parent="1" vertex="1">
          <mxGeometry y="460" width="75" height="60" as="geometry" />
        </mxCell>
        <mxCell id="QlFemAFxS4Am1Kz2Skcr-19" style="edgeStyle=orthogonalEdgeStyle;rounded=0;orthogonalLoop=1;jettySize=auto;html=1;" parent="1" target="QlFemAFxS4Am1Kz2Skcr-15" edge="1">
          <mxGeometry relative="1" as="geometry">
            <mxPoint x="70" y="550" as="sourcePoint" />
          </mxGeometry>
        </mxCell>
        <mxCell id="QlFemAFxS4Am1Kz2Skcr-18" value="&lt;font style=&quot;vertical-align: inherit;&quot;&gt;&lt;font style=&quot;vertical-align: inherit;&quot;&gt;precio&lt;/font&gt;&lt;/font&gt;" style="ellipse;whiteSpace=wrap;html=1;" parent="1" vertex="1">
          <mxGeometry y="525" width="70" height="60" as="geometry" />
        </mxCell>
        <mxCell id="QlFemAFxS4Am1Kz2Skcr-21" style="edgeStyle=orthogonalEdgeStyle;rounded=0;orthogonalLoop=1;jettySize=auto;html=1;" parent="1" target="QlFemAFxS4Am1Kz2Skcr-15" edge="1">
          <mxGeometry relative="1" as="geometry">
            <mxPoint x="80" y="415" as="sourcePoint" />
          </mxGeometry>
        </mxCell>
        <mxCell id="QlFemAFxS4Am1Kz2Skcr-23" style="edgeStyle=orthogonalEdgeStyle;rounded=0;orthogonalLoop=1;jettySize=auto;html=1;exitX=0.5;exitY=1;exitDx=0;exitDy=0;" parent="1" source="QlFemAFxS4Am1Kz2Skcr-3" target="QlFemAFxS4Am1Kz2Skcr-3" edge="1">
          <mxGeometry relative="1" as="geometry" />
        </mxCell>
        <mxCell id="QlFemAFxS4Am1Kz2Skcr-7" value="&lt;font style=&quot;vertical-align: inherit;&quot;&gt;&lt;font style=&quot;vertical-align: inherit;&quot;&gt;ape_materno&lt;/font&gt;&lt;/font&gt;" style="ellipse;whiteSpace=wrap;html=1;" parent="1" vertex="1">
          <mxGeometry x="680" y="570" width="70" height="60" as="geometry" />
        </mxCell>
        <mxCell id="QlFemAFxS4Am1Kz2Skcr-26" style="edgeStyle=orthogonalEdgeStyle;rounded=0;orthogonalLoop=1;jettySize=auto;html=1;entryX=0;entryY=0;entryDx=0;entryDy=0;" parent="1" target="QlFemAFxS4Am1Kz2Skcr-2" edge="1">
          <mxGeometry relative="1" as="geometry">
            <mxPoint x="610" y="420" as="sourcePoint" />
          </mxGeometry>
        </mxCell>
        <mxCell id="QlFemAFxS4Am1Kz2Skcr-27" value="&lt;font style=&quot;vertical-align: inherit;&quot;&gt;&lt;font style=&quot;vertical-align: inherit;&quot;&gt;provedor&lt;/font&gt;&lt;/font&gt;" style="rounded=0;whiteSpace=wrap;html=1;" parent="1" vertex="1">
          <mxGeometry x="140" y="780" width="120" height="60" as="geometry" />
        </mxCell>
        <mxCell id="QlFemAFxS4Am1Kz2Skcr-31" style="edgeStyle=orthogonalEdgeStyle;rounded=0;orthogonalLoop=1;jettySize=auto;html=1;entryX=0.683;entryY=0.967;entryDx=0;entryDy=0;entryPerimeter=0;" parent="1" target="QlFemAFxS4Am1Kz2Skcr-27" edge="1" source="QlFemAFxS4Am1Kz2Skcr-30">
          <mxGeometry relative="1" as="geometry">
            <mxPoint x="85" y="900" as="sourcePoint" />
            <mxPoint x="205" y="930" as="targetPoint" />
          </mxGeometry>
        </mxCell>
        <mxCell id="YsdIHq_rO9iu3enCDjn4-12" style="edgeStyle=orthogonalEdgeStyle;rounded=0;orthogonalLoop=1;jettySize=auto;html=1;" edge="1" parent="1" source="YsdIHq_rO9iu3enCDjn4-13" target="QlFemAFxS4Am1Kz2Skcr-27">
          <mxGeometry relative="1" as="geometry">
            <mxPoint x="75" y="765" as="sourcePoint" />
          </mxGeometry>
        </mxCell>
        <mxCell id="QlFemAFxS4Am1Kz2Skcr-29" value="&lt;font style=&quot;vertical-align: inherit;&quot;&gt;&lt;font style=&quot;vertical-align: inherit;&quot;&gt;nombre&lt;/font&gt;&lt;/font&gt;" style="ellipse;whiteSpace=wrap;html=1;" parent="1" vertex="1">
          <mxGeometry x="160" y="900" width="70" height="60" as="geometry" />
        </mxCell>
        <mxCell id="QlFemAFxS4Am1Kz2Skcr-33" style="edgeStyle=orthogonalEdgeStyle;rounded=0;orthogonalLoop=1;jettySize=auto;html=1;entryX=0.193;entryY=1.017;entryDx=0;entryDy=0;entryPerimeter=0;" parent="1" target="QlFemAFxS4Am1Kz2Skcr-27" edge="1" source="QlFemAFxS4Am1Kz2Skcr-29">
          <mxGeometry relative="1" as="geometry">
            <mxPoint x="75" y="830" as="sourcePoint" />
          </mxGeometry>
        </mxCell>
        <mxCell id="QlFemAFxS4Am1Kz2Skcr-30" value="&lt;font style=&quot;vertical-align: inherit;&quot;&gt;&lt;font style=&quot;vertical-align: inherit;&quot;&gt;direccion&lt;/font&gt;&lt;/font&gt;" style="ellipse;whiteSpace=wrap;html=1;" parent="1" vertex="1">
          <mxGeometry x="250" y="880" width="75" height="50" as="geometry" />
        </mxCell>
        <mxCell id="QlFemAFxS4Am1Kz2Skcr-34" value="&lt;font style=&quot;vertical-align: inherit;&quot;&gt;&lt;font style=&quot;vertical-align: inherit;&quot;&gt;compra&lt;/font&gt;&lt;/font&gt;" style="rhombus;whiteSpace=wrap;html=1;" parent="1" vertex="1">
          <mxGeometry x="310" y="475" width="80" height="80" as="geometry" />
        </mxCell>
        <mxCell id="QlFemAFxS4Am1Kz2Skcr-37" style="edgeStyle=orthogonalEdgeStyle;rounded=0;orthogonalLoop=1;jettySize=auto;html=1;exitX=0.5;exitY=1;exitDx=0;exitDy=0;entryX=0.503;entryY=0.833;entryDx=0;entryDy=0;entryPerimeter=0;fontFamily=Helvetica;fontSize=12;fontColor=default;" parent="1" edge="1">
          <mxGeometry relative="1" as="geometry">
            <mxPoint x="40" y="445" as="sourcePoint" />
            <mxPoint x="40.24000000000001" y="434.98" as="targetPoint" />
          </mxGeometry>
        </mxCell>
        <mxCell id="QlFemAFxS4Am1Kz2Skcr-38" value="&lt;font style=&quot;vertical-align: inherit;&quot;&gt;&lt;font style=&quot;vertical-align: inherit;&quot;&gt;suministrado&lt;/font&gt;&lt;/font&gt;" style="rhombus;whiteSpace=wrap;html=1;strokeColor=default;fontFamily=Helvetica;fontSize=12;fontColor=default;fillColor=default;" parent="1" vertex="1">
          <mxGeometry x="160" y="660" width="80" height="80" as="geometry" />
        </mxCell>
        <mxCell id="QlFemAFxS4Am1Kz2Skcr-42" value="&lt;h1&gt;&lt;font style=&quot;vertical-align: inherit;&quot;&gt;&lt;font style=&quot;vertical-align: inherit;&quot;&gt;EJERCICIO 1&lt;/font&gt;&lt;/font&gt;&lt;/h1&gt;" style="text;html=1;strokeColor=none;fillColor=none;spacing=5;spacingTop=-20;whiteSpace=wrap;overflow=hidden;rounded=0;fontSize=12;fontFamily=Helvetica;fontColor=default;" parent="1" vertex="1">
          <mxGeometry x="270" y="330" width="190" height="30" as="geometry" />
        </mxCell>
        <mxCell id="YsdIHq_rO9iu3enCDjn4-2" value="&lt;span style=&quot;border-bottom: 1px dotted&quot;&gt;cve_prod&lt;/span&gt;" style="ellipse;whiteSpace=wrap;html=1;align=center;" vertex="1" parent="1">
          <mxGeometry y="400" width="100" height="40" as="geometry" />
        </mxCell>
        <mxCell id="YsdIHq_rO9iu3enCDjn4-3" value="" style="edgeStyle=entityRelationEdgeStyle;fontSize=12;html=1;endArrow=ERoneToMany;rounded=0;entryX=0;entryY=0.5;entryDx=0;entryDy=0;" edge="1" parent="1" source="QlFemAFxS4Am1Kz2Skcr-15" target="QlFemAFxS4Am1Kz2Skcr-34">
          <mxGeometry width="100" height="100" relative="1" as="geometry">
            <mxPoint x="270" y="600" as="sourcePoint" />
            <mxPoint x="370" y="500" as="targetPoint" />
          </mxGeometry>
        </mxCell>
        <mxCell id="YsdIHq_rO9iu3enCDjn4-4" value="" style="edgeStyle=entityRelationEdgeStyle;fontSize=12;html=1;endArrow=ERoneToMany;rounded=0;" edge="1" parent="1" source="QlFemAFxS4Am1Kz2Skcr-2" target="QlFemAFxS4Am1Kz2Skcr-34">
          <mxGeometry width="100" height="100" relative="1" as="geometry">
            <mxPoint x="300" y="680" as="sourcePoint" />
            <mxPoint x="400" y="580" as="targetPoint" />
          </mxGeometry>
        </mxCell>
        <mxCell id="YsdIHq_rO9iu3enCDjn4-5" value="" style="edgeStyle=entityRelationEdgeStyle;fontSize=12;html=1;endArrow=ERoneToMany;rounded=0;entryX=0.5;entryY=1;entryDx=0;entryDy=0;" edge="1" parent="1" source="QlFemAFxS4Am1Kz2Skcr-27" target="QlFemAFxS4Am1Kz2Skcr-38">
          <mxGeometry width="100" height="100" relative="1" as="geometry">
            <mxPoint x="180" y="760" as="sourcePoint" />
            <mxPoint x="280" y="660" as="targetPoint" />
          </mxGeometry>
        </mxCell>
        <mxCell id="YsdIHq_rO9iu3enCDjn4-7" value="" style="edgeStyle=entityRelationEdgeStyle;fontSize=12;html=1;endArrow=ERoneToMany;rounded=0;entryX=0.425;entryY=0.025;entryDx=0;entryDy=0;entryPerimeter=0;exitX=0.5;exitY=1;exitDx=0;exitDy=0;" edge="1" parent="1">
          <mxGeometry width="100" height="100" relative="1" as="geometry">
            <mxPoint x="200" y="561" as="sourcePoint" />
            <mxPoint x="194" y="664" as="targetPoint" />
          </mxGeometry>
        </mxCell>
        <mxCell id="YsdIHq_rO9iu3enCDjn4-13" value="rfc" style="ellipse;whiteSpace=wrap;html=1;align=center;fontStyle=4;" vertex="1" parent="1">
          <mxGeometry y="790" width="80" height="40" as="geometry" />
        </mxCell>
        <mxCell id="YsdIHq_rO9iu3enCDjn4-14" value="cve_cliente" style="ellipse;whiteSpace=wrap;html=1;align=center;" vertex="1" parent="1">
          <mxGeometry x="608" y="400" width="100" height="40" as="geometry" />
        </mxCell>
      </root>
    </mxGraphModel>
  </diagram>
</mxfile>
